<?xml version="1.0" ?><svg id="Layer_1_1_" style="enable-background:new 0 0 64 64;" version="1.1" viewBox="0 0 64 64" xml:space="preserve" xmlns="http://www.w3.org/2000/svg" xmlns:xlink="http://www.w3.org/1999/xlink"><g><g><path d="M58,51H42c-0.552,0-1-0.448-1-1V32c0-0.552,0.448-1,1-1h16c0.552,0,1,0.448,1,1v18    C59,50.552,58.552,51,58,51z" style="fill:#00F4CB;"/></g><g><path d="M38,24c0-1.105,0.895-2,2-2h3V6c0-0.552-0.448-1-1-1H6C5.448,5,5,5.448,5,6v20c0,0.552,0.448,1,1,1    h32V24z" style="fill:#00F4CB;"/></g><g><path d="M60,21H47V4c0-1.654-1.346-3-3-3H4C2.346,1,1,2.346,1,4v30c0,1.654,1.346,3,3,3h12v4h-2c-0.552,0-1,0.448-1,1s0.448,1,1,1    h20c0.552,0,1-0.448,1-1s-0.448-1-1-1h-2v-4h5v23c0,1.654,1.346,3,3,3h20c1.654,0,3-1.346,3-3V24C63,22.346,61.654,21,60,21z     M39,29h22v24H39V29z M61,24v3H39v-3c0-0.551,0.449-1,1-1h20C60.551,23,61,23.449,61,24z M4,3h40c0.551,0,1,0.449,1,1v17h-5    c-1.654,0-3,1.346-3,3v5H3V4C3,3.449,3.449,3,4,3z M30,41H18v-4h12V41z M4,35c-0.551,0-1-0.449-1-1v-3h34v4H4z M60,61H40    c-0.551,0-1-0.449-1-1v-5h22v5C61,60.551,60.551,61,60,61z"/><path d="M53,57h-6c-0.552,0-1,0.448-1,1s0.448,1,1,1h6c0.552,0,1-0.448,1-1S53.552,57,53,57z"/><circle cx="58" cy="50" r="1"/><circle cx="15" cy="10" r="1"/><circle cx="19" cy="10" r="1"/><path d="M23,11h16.586l-1.293,1.293c-0.391,0.391-0.391,1.023,0,1.414C38.488,13.902,38.744,14,39,14s0.512-0.098,0.707-0.293l3-3    c0.391-0.391,0.391-1.023,0-1.414l-3-3c-0.391-0.391-1.023-0.391-1.414,0s-0.391,1.023,0,1.414L39.586,9H23c-0.552,0-1,0.448-1,1    S22.448,11,23,11z"/><circle cx="33" cy="20" r="1"/><circle cx="29" cy="20" r="1"/><path d="M8.293,23.707C8.488,23.902,8.744,24,9,24s0.512-0.098,0.707-0.293c0.391-0.391,0.391-1.023,0-1.414L8.414,21H25    c0.552,0,1-0.448,1-1s-0.448-1-1-1H8.414l1.293-1.293c0.391-0.391,0.391-1.023,0-1.414s-1.023-0.391-1.414,0l-3,3    c-0.391,0.391-0.391,1.023,0,1.414L8.293,23.707z"/><path d="M58,31c-0.552,0-1,0.448-1,1v14c0,0.552,0.448,1,1,1s1-0.448,1-1V32C59,31.448,58.552,31,58,31z"/></g></g></svg>